<svg width="160" height="130" viewBox="0 0 160 130" fill="none" xmlns="http://www.w3.org/2000/svg">
<path fill-rule="evenodd" clip-rule="evenodd" d="M0 80C0 35.8172 35.8172 0 80 0C124.183 0 160 35.8172 160 80C160 124.183 124.183 160 80 160C35.8172 160 0 124.183 0 80Z" fill="url(#paint0_linear)"/>
<path d="M20.3875 74.5255C18.6111 74.5255 17.2055 73.9638 16.1707 72.8405C15.1359 71.7115 14.6185 70.1731 14.6185 68.2252C14.6185 66.2884 15.1386 64.7555 16.179 63.6266C17.2194 62.4977 18.6222 61.9332 20.3875 61.9332C22.1528 61.9332 23.5529 62.4977 24.5877 63.6266C25.6225 64.7555 26.1399 66.2884 26.1399 68.2252C26.1399 69.2988 25.9767 70.2561 25.6502 71.0973C25.3292 71.9329 24.8644 72.6108 24.2557 73.131L25.7415 75.3888H23.3177L22.4876 74.2101C21.8457 74.4204 21.1456 74.5255 20.3875 74.5255ZM20.3958 72.3258C20.667 72.3258 20.9547 72.2898 21.2591 72.2179L19.8978 70.2257H22.1722L22.7283 70.8981C23.2983 70.2838 23.5833 69.3929 23.5833 68.2252C23.5833 66.9746 23.2928 65.9812 22.7117 65.2452C22.1307 64.5037 21.3559 64.1329 20.3875 64.1329C19.4135 64.1329 18.636 64.5037 18.055 65.2452C17.4739 65.9812 17.1834 66.9746 17.1834 68.2252C17.1834 69.4869 17.4739 70.4858 18.055 71.2218C18.636 71.9578 19.4163 72.3258 20.3958 72.3258ZM36.1474 65.0626V74.2184H33.8066V72.7491H33.6572C33.2034 73.8615 32.3125 74.4176 30.9843 74.4176C29.9938 74.4176 29.2107 74.1188 28.6352 73.5211C28.0652 72.9179 27.7802 72.0878 27.7802 71.0309V65.0626H30.1958V70.4083C30.1958 71.6811 30.7574 72.3175 31.8808 72.3175C32.4729 72.3175 32.9295 72.1432 33.2504 71.7946C33.5714 71.4459 33.7319 70.9617 33.7319 70.3419V65.0626H36.1474ZM42.1207 66.7145C41.5618 66.7145 41.0997 66.8943 40.7345 67.254C40.3748 67.6137 40.1728 68.0896 40.1285 68.6818H44.0299C44.0022 68.073 43.8168 67.5944 43.4737 67.2457C43.1362 66.8916 42.6852 66.7145 42.1207 66.7145ZM44.0797 71.6119H46.3292C46.1466 72.4808 45.6818 73.167 44.9347 73.6705C44.1931 74.1686 43.2635 74.4176 42.1456 74.4176C40.7511 74.4176 39.6637 74.0026 38.8834 73.1725C38.1031 72.3369 37.713 71.1748 37.713 69.6862C37.713 68.1976 38.1059 67.0216 38.8917 66.1583C39.6775 65.295 40.7511 64.8634 42.1124 64.8634C43.4627 64.8634 44.5141 65.2701 45.2667 66.0836C46.0249 66.8971 46.4039 68.0315 46.4039 69.4869V70.2257H40.1202V70.3502C40.1368 71.0309 40.3305 71.5704 40.7013 71.9689C41.0776 72.3618 41.5812 72.5582 42.212 72.5582C42.6879 72.5582 43.0864 72.478 43.4073 72.3175C43.7283 72.1515 43.9524 71.9163 44.0797 71.6119ZM47.9778 74.2184V65.0626H50.3186V66.5236H50.468C50.5898 66.0587 50.8665 65.6741 51.2981 65.3698C51.7353 65.0654 52.2416 64.9132 52.8172 64.9132C53.2322 64.9132 53.5476 64.9519 53.7635 65.0294V67.2291C53.5089 67.1295 53.1271 67.0797 52.6179 67.0797C51.9484 67.0797 51.4088 67.2651 50.9993 67.6359C50.5953 68.0066 50.3933 68.5102 50.3933 69.1466V74.2184H47.9778ZM62.1191 73.1476C61.3222 73.9943 60.221 74.4176 58.8154 74.4176C57.4098 74.4176 56.3058 73.9943 55.5034 73.1476C54.7065 72.3009 54.308 71.1305 54.308 69.6364C54.308 68.1533 54.7092 66.9884 55.5117 66.1417C56.3196 65.2895 57.4208 64.8634 58.8154 64.8634C60.2099 64.8634 61.3084 65.2895 62.1108 66.1417C62.9187 66.9884 63.3227 68.1533 63.3227 69.6364C63.3227 71.1305 62.9215 72.3009 62.1191 73.1476ZM58.8154 72.442C59.4573 72.442 59.9553 72.1985 60.3095 71.7115C60.6637 71.219 60.8408 70.5273 60.8408 69.6364C60.8408 68.7565 60.6609 68.0703 60.3012 67.5778C59.947 67.0852 59.4518 66.839 58.8154 66.839C58.1734 66.839 57.6754 67.0852 57.3212 67.5778C56.9671 68.0703 56.79 68.7565 56.79 69.6364C56.79 70.5273 56.9643 71.219 57.3129 71.7115C57.6671 72.1985 58.1679 72.442 58.8154 72.442ZM72.1648 72.5416C72.7237 72.5416 73.1913 72.3839 73.5676 72.0685C73.9439 71.7531 74.1321 71.3629 74.1321 70.8981V70.2257L72.281 70.3419C71.2517 70.4139 70.7371 70.7819 70.7371 71.4459C70.7371 71.7835 70.8671 72.0519 71.1272 72.2511C71.3928 72.4448 71.7387 72.5416 72.1648 72.5416ZM71.3679 74.3595C70.4825 74.3595 69.7603 74.1077 69.2014 73.6041C68.648 73.1005 68.3713 72.4337 68.3713 71.6036C68.3713 70.7791 68.6757 70.1316 69.2844 69.6613C69.8987 69.1853 70.7758 68.9142 71.9158 68.8478L74.1321 68.715V67.9679C74.1321 67.5861 73.9993 67.2928 73.7337 67.088C73.468 66.8777 73.0862 66.7726 72.5881 66.7726C71.6917 66.7726 71.141 67.0548 70.9363 67.6193H68.7117C68.7892 66.7726 69.1876 66.103 69.907 65.6105C70.6319 65.1124 71.5699 64.8634 72.721 64.8634C73.9273 64.8634 74.8598 65.1346 75.5183 65.6769C76.1824 66.2192 76.5144 66.9829 76.5144 67.9679V74.2184H74.1736V73.0231H74.0242C73.7862 73.4436 73.4321 73.7729 72.9617 74.0109C72.4913 74.2433 71.96 74.3595 71.3679 74.3595ZM80.9106 65.0626V74.5006C80.9106 75.4358 80.6366 76.1414 80.0888 76.6173C79.5409 77.0988 78.7358 77.3395 77.6733 77.3395C77.3744 77.3395 77.1586 77.3284 77.0258 77.3063V75.4552C77.059 75.4607 77.1614 75.4635 77.3329 75.4635C77.7535 75.4635 78.0523 75.3833 78.2294 75.2228C78.4065 75.0623 78.495 74.7994 78.495 74.4342V65.0626H80.9106ZM79.707 63.7843C79.2753 63.7843 78.9294 63.6709 78.6694 63.444C78.4093 63.2171 78.2792 62.9238 78.2792 62.5641C78.2792 62.1989 78.4093 61.9056 78.6694 61.6842C78.9294 61.4573 79.2753 61.3439 79.707 61.3439C80.1386 61.3439 80.4845 61.4573 80.7446 61.6842C81.0046 61.9056 81.1347 62.1989 81.1347 62.5641C81.1347 62.9238 81.0019 63.2171 80.7363 63.444C80.4762 63.6709 80.1331 63.7843 79.707 63.7843ZM91.2335 65.0626V74.2184H88.8927V72.7491H88.7432C88.2895 73.8615 87.3985 74.4176 86.0704 74.4176C85.0798 74.4176 84.2968 74.1188 83.7213 73.5211C83.1513 72.9179 82.8663 72.0878 82.8663 71.0309V65.0626H85.2818V70.4083C85.2818 71.6811 85.8435 72.3175 86.9669 72.3175C87.559 72.3175 88.0155 72.1432 88.3365 71.7946C88.6575 71.4459 88.8179 70.9617 88.8179 70.3419V65.0626H91.2335ZM96.5261 74.3595C95.3751 74.3595 94.4647 73.9362 93.7952 73.0895C93.1311 72.2428 92.7991 71.089 92.7991 69.6281C92.7991 68.1726 93.1311 67.0244 93.7952 66.1832C94.4647 65.3365 95.3751 64.9132 96.5261 64.9132C97.1459 64.9132 97.6965 65.0571 98.178 65.3448C98.6594 65.6271 99.0191 66.02 99.2571 66.5236H99.3982V61.568H101.814V74.2184H99.4729V72.7823H99.3235C99.08 73.2749 98.712 73.6622 98.2195 73.9445C97.727 74.2212 97.1625 74.3595 96.5261 74.3595ZM98.8669 67.6691C98.4962 67.1821 97.9898 66.9386 97.3479 66.9386C96.706 66.9386 96.1996 67.1793 95.8288 67.6608C95.4636 68.1367 95.281 68.7952 95.281 69.6364C95.281 70.483 95.4636 71.1471 95.8288 71.6285C96.1941 72.1045 96.7004 72.3424 97.3479 72.3424C97.9953 72.3424 98.5017 72.1045 98.8669 71.6285C99.2377 71.1471 99.4231 70.4858 99.4231 69.6447C99.4231 68.809 99.2377 68.1505 98.8669 67.6691ZM107.214 72.5416C107.773 72.5416 108.241 72.3839 108.617 72.0685C108.993 71.7531 109.182 71.3629 109.182 70.8981V70.2257L107.33 70.3419C106.301 70.4139 105.787 70.7819 105.787 71.4459C105.787 71.7835 105.917 72.0519 106.177 72.2511C106.442 72.4448 106.788 72.5416 107.214 72.5416ZM106.417 74.3595C105.532 74.3595 104.81 74.1077 104.251 73.6041C103.697 73.1005 103.421 72.4337 103.421 71.6036C103.421 70.7791 103.725 70.1316 104.334 69.6613C104.948 69.1853 105.825 68.9142 106.965 68.8478L109.182 68.715V67.9679C109.182 67.5861 109.049 67.2928 108.783 67.088C108.517 66.8777 108.136 66.7726 107.638 66.7726C106.741 66.7726 106.19 67.0548 105.986 67.6193H103.761C103.839 66.7726 104.237 66.103 104.956 65.6105C105.681 65.1124 106.619 64.8634 107.77 64.8634C108.977 64.8634 109.909 65.1346 110.568 65.6769C111.232 66.2192 111.564 66.9829 111.564 67.9679V74.2184H109.223V73.0231H109.074C108.836 73.4436 108.482 73.7729 108.011 74.0109C107.541 74.2433 107.01 74.3595 106.417 74.3595ZM120.78 74.3595C119.628 74.3595 118.718 73.9362 118.049 73.0895C117.384 72.2428 117.052 71.089 117.052 69.6281C117.052 68.1726 117.384 67.0244 118.049 66.1832C118.718 65.3365 119.628 64.9132 120.78 64.9132C121.399 64.9132 121.95 65.0571 122.431 65.3448C122.913 65.6271 123.273 66.02 123.51 66.5236H123.652V61.568H126.067V74.2184H123.726V72.7823H123.577C123.333 73.2749 122.965 73.6622 122.473 73.9445C121.98 74.2212 121.416 74.3595 120.78 74.3595ZM123.12 67.6691C122.75 67.1821 122.243 66.9386 121.601 66.9386C120.959 66.9386 120.453 67.1793 120.082 67.6608C119.717 68.1367 119.534 68.7952 119.534 69.6364C119.534 70.483 119.717 71.1471 120.082 71.6285C120.447 72.1045 120.954 72.3424 121.601 72.3424C122.249 72.3424 122.755 72.1045 123.12 71.6285C123.491 71.1471 123.676 70.4858 123.676 69.6447C123.676 68.809 123.491 68.1505 123.12 67.6691ZM135.527 73.1476C134.73 73.9943 133.629 74.4176 132.223 74.4176C130.817 74.4176 129.713 73.9943 128.911 73.1476C128.114 72.3009 127.716 71.1305 127.716 69.6364C127.716 68.1533 128.117 66.9884 128.919 66.1417C129.727 65.2895 130.828 64.8634 132.223 64.8634C133.618 64.8634 134.716 65.2895 135.518 66.1417C136.326 66.9884 136.73 68.1533 136.73 69.6364C136.73 71.1305 136.329 72.3009 135.527 73.1476ZM132.223 72.442C132.865 72.442 133.363 72.1985 133.717 71.7115C134.071 71.219 134.248 70.5273 134.248 69.6364C134.248 68.7565 134.069 68.0703 133.709 67.5778C133.355 67.0852 132.859 66.839 132.223 66.839C131.581 66.839 131.083 67.0852 130.729 67.5778C130.375 68.0703 130.198 68.7565 130.198 69.6364C130.198 70.5273 130.372 71.219 130.721 71.7115C131.075 72.1985 131.576 72.442 132.223 72.442ZM138.088 67.7521C138.088 66.8833 138.437 66.186 139.134 65.6603C139.837 65.129 140.758 64.8634 141.898 64.8634C143.061 64.8634 143.971 65.0986 144.629 65.569C145.293 66.0393 145.659 66.7117 145.725 67.5861H143.492C143.431 67.2872 143.263 67.0548 142.986 66.8888C142.715 66.7172 142.358 66.6315 141.915 66.6315C141.478 66.6315 141.118 66.7228 140.836 66.9054C140.554 67.0825 140.413 67.3149 140.413 67.6027C140.413 67.824 140.512 68.0094 140.711 68.1588C140.911 68.3027 141.223 68.4217 141.649 68.5157L143.368 68.8893C144.259 69.083 144.909 69.379 145.318 69.7775C145.733 70.1759 145.941 70.7155 145.941 71.3961C145.941 72.3037 145.57 73.0341 144.829 73.5875C144.087 74.1409 143.113 74.4176 141.907 74.4176C140.7 74.4176 139.746 74.1796 139.043 73.7037C138.34 73.2278 137.947 72.5499 137.864 71.67H140.222C140.415 72.323 140.994 72.6495 141.957 72.6495C142.427 72.6495 142.809 72.561 143.102 72.3839C143.395 72.2013 143.542 71.9633 143.542 71.67C143.542 71.4432 143.451 71.2605 143.268 71.1222C143.085 70.9783 142.792 70.8621 142.388 70.7736L140.728 70.4C139.837 70.2063 139.173 69.8937 138.736 69.462C138.304 69.0249 138.088 68.4549 138.088 67.7521ZM43.756 87.0626L40.5934 96.2184H37.8707L34.6915 87.0626H37.2897L39.1822 93.8859H39.3317L41.2076 87.0626H43.756ZM51.9622 95.1476C51.1653 95.9943 50.0641 96.4176 48.6585 96.4176C47.2529 96.4176 46.1489 95.9943 45.3465 95.1476C44.5496 94.3009 44.1511 93.1305 44.1511 91.6364C44.1511 90.1533 44.5524 88.9884 45.3548 88.1417C46.1627 87.2895 47.2639 86.8634 48.6585 86.8634C50.053 86.8634 51.1515 87.2895 51.9539 88.1417C52.7618 88.9884 53.1658 90.1533 53.1658 91.6364C53.1658 93.1305 52.7646 94.3009 51.9622 95.1476ZM48.6585 94.442C49.3004 94.442 49.7984 94.1985 50.1526 93.7115C50.5068 93.219 50.6839 92.5273 50.6839 91.6364C50.6839 90.7565 50.504 90.0703 50.1443 89.5778C49.7901 89.0852 49.2949 88.839 48.6585 88.839C48.0165 88.839 47.5185 89.0852 47.1643 89.5778C46.8102 90.0703 46.6331 90.7565 46.6331 91.6364C46.6331 92.5273 46.8074 93.219 47.156 93.7115C47.5102 94.1985 48.011 94.442 48.6585 94.442ZM54.8144 96.2184V83.568H57.2299V96.2184H54.8144ZM67.6192 87.0626V96.2184H65.2784V94.7491H65.129C64.6752 95.8615 63.7843 96.4176 62.4562 96.4176C61.4656 96.4176 60.6825 96.1188 60.107 95.5211C59.537 94.9179 59.252 94.0878 59.252 93.0309V87.0626H61.6676V92.4083C61.6676 93.6811 62.2293 94.3175 63.3526 94.3175C63.9448 94.3175 64.4013 94.1432 64.7223 93.7946C65.0432 93.4459 65.2037 92.9617 65.2037 92.3419V87.0626H67.6192ZM69.6331 96.2184V87.0626H71.9739V88.5319H72.1233C72.3391 88.0061 72.6767 87.5966 73.136 87.3033C73.6008 87.0101 74.1653 86.8634 74.8294 86.8634C75.842 86.8634 76.6168 87.1622 77.1536 87.7599C77.6904 88.352 77.9587 89.1987 77.9587 90.2999V96.2184H75.5432V90.8727C75.5432 89.5888 74.9815 88.9469 73.8582 88.9469C73.2992 88.9469 72.8565 89.1295 72.53 89.4948C72.2091 89.8545 72.0486 90.3359 72.0486 90.9391V96.2184H69.6331ZM80.5868 84.8878H83.0024V87.1539H84.9032V89.0548H83.0024V93.172C83.0024 93.5704 83.0964 93.8637 83.2846 94.0519C83.4783 94.24 83.7799 94.3341 84.1894 94.3341C84.4605 94.3341 84.6985 94.323 84.9032 94.3009V96.1437C84.5325 96.2156 84.1285 96.2516 83.6913 96.2516C82.579 96.2516 81.7822 96.0579 81.3007 95.6705C80.8248 95.2832 80.5868 94.6412 80.5868 93.7448V89.0548H79.1591V87.1539H80.5868V84.8878ZM89.814 94.5416C90.373 94.5416 90.8406 94.3839 91.2169 94.0685C91.5932 93.7531 91.7813 93.3629 91.7813 92.8981V92.2257L89.9303 92.3419C88.901 92.4139 88.3863 92.7819 88.3863 93.4459C88.3863 93.7835 88.5164 94.0519 88.7764 94.2511C89.0421 94.4448 89.3879 94.5416 89.814 94.5416ZM89.0172 96.3595C88.1317 96.3595 87.4096 96.1077 86.8507 95.6041C86.2973 95.1005 86.0206 94.4337 86.0206 93.6036C86.0206 92.7791 86.3249 92.1316 86.9337 91.6613C87.5479 91.1853 88.425 90.9142 89.565 90.8478L91.7813 90.715V89.9679C91.7813 89.5861 91.6485 89.2928 91.3829 89.088C91.1173 88.8777 90.7354 88.7726 90.2374 88.7726C89.3409 88.7726 88.7903 89.0548 88.5855 89.6193H86.3609C86.4384 88.7726 86.8368 88.103 87.5562 87.6105C88.2812 87.1124 89.2192 86.8634 90.3702 86.8634C91.5766 86.8634 92.509 87.1346 93.1676 87.6769C93.8316 88.2192 94.1637 88.9829 94.1637 89.9679V96.2184H91.8228V95.0231H91.6734C91.4355 95.4436 91.0813 95.7729 90.6109 96.0109C90.1405 96.2433 89.6093 96.3595 89.0172 96.3595ZM91.3165 85.5851H89.0836L91.1339 82.6549H93.6988L91.3165 85.5851ZM96.1277 96.2184V87.0626H98.4685V88.5236H98.6179C98.7396 88.0587 99.0163 87.6741 99.448 87.3698C99.8852 87.0654 100.392 86.9132 100.967 86.9132C101.382 86.9132 101.697 86.9519 101.913 87.0294V89.2291C101.659 89.1295 101.277 89.0797 100.768 89.0797C100.098 89.0797 99.5587 89.2651 99.1492 89.6359C98.7452 90.0066 98.5432 90.5102 98.5432 91.1466V96.2184H96.1277ZM103.139 96.2184V87.0626H105.554V96.2184H103.139ZM104.35 85.7843C103.919 85.7843 103.573 85.6709 103.313 85.444C103.053 85.2171 102.923 84.9238 102.923 84.5641C102.923 84.1989 103.053 83.9056 103.313 83.6842C103.573 83.4573 103.919 83.3439 104.35 83.3439C104.782 83.3439 105.128 83.4573 105.388 83.6842C105.648 83.9056 105.778 84.1989 105.778 84.5641C105.778 84.9238 105.645 85.2171 105.38 85.444C105.12 85.6709 104.777 85.7843 104.35 85.7843ZM114.956 95.1476C114.159 95.9943 113.058 96.4176 111.652 96.4176C110.246 96.4176 109.142 95.9943 108.34 95.1476C107.543 94.3009 107.145 93.1305 107.145 91.6364C107.145 90.1533 107.546 88.9884 108.348 88.1417C109.156 87.2895 110.257 86.8634 111.652 86.8634C113.046 86.8634 114.145 87.2895 114.947 88.1417C115.755 88.9884 116.159 90.1533 116.159 91.6364C116.159 93.1305 115.758 94.3009 114.956 95.1476ZM111.652 94.442C112.294 94.442 112.792 94.1985 113.146 93.7115C113.5 93.219 113.677 92.5273 113.677 91.6364C113.677 90.7565 113.497 90.0703 113.138 89.5778C112.784 89.0852 112.288 88.839 111.652 88.839C111.01 88.839 110.512 89.0852 110.158 89.5778C109.804 90.0703 109.627 90.7565 109.627 91.6364C109.627 92.5273 109.801 93.219 110.149 93.7115C110.504 94.1985 111.004 94.442 111.652 94.442ZM117.517 89.7521C117.517 88.8833 117.866 88.186 118.563 87.6603C119.266 87.129 120.187 86.8634 121.327 86.8634C122.489 86.8634 123.4 87.0986 124.058 87.569C124.722 88.0393 125.088 88.7117 125.154 89.5861H122.921C122.86 89.2872 122.691 89.0548 122.415 88.8888C122.144 88.7172 121.787 88.6315 121.344 88.6315C120.907 88.6315 120.547 88.7228 120.265 88.9054C119.983 89.0825 119.842 89.3149 119.842 89.6027C119.842 89.824 119.941 90.0094 120.14 90.1588C120.34 90.3027 120.652 90.4217 121.078 90.5157L122.797 90.8893C123.688 91.083 124.338 91.379 124.747 91.7775C125.162 92.1759 125.37 92.7155 125.37 93.3961C125.37 94.3037 124.999 95.0341 124.258 95.5875C123.516 96.1409 122.542 96.4176 121.336 96.4176C120.129 96.4176 119.175 96.1796 118.472 95.7037C117.769 95.2278 117.376 94.5499 117.293 93.67H119.651C119.844 94.323 120.423 94.6495 121.385 94.6495C121.856 94.6495 122.238 94.561 122.531 94.3839C122.824 94.2013 122.971 93.9633 122.971 93.67C122.971 93.4432 122.88 93.2605 122.697 93.1222C122.514 92.9783 122.221 92.8621 121.817 92.7736L120.157 92.4C119.266 92.2063 118.602 91.8937 118.165 91.462C117.733 91.0249 117.517 90.4549 117.517 89.7521Z" fill="white"/>
<defs>
<linearGradient id="paint0_linear" x1="-5.96046e-07" y1="80" x2="160" y2="80" gradientUnits="userSpaceOnUse">
<stop stop-color="#16C5F4"/>
<stop offset="1" stop-color="#2FDD7E"/>
</linearGradient>
</defs>
</svg>
