<svg width="12" height="13" viewBox="0 0 12 13" fill="none" xmlns="http://www.w3.org/2000/svg">
<path d="M5.99782 0C7.65409 0 9.1537 0.729322 10.2423 1.90341C11.3265 3.08254 12 4.70644 12 6.5C12 8.29356 11.3265 9.91746 10.2423 11.0966C9.1534 12.2707 7.65409 13 5.99782 13C4.34155 13 2.84224 12.2707 1.75801 11.0966C0.669137 9.91746 0 8.29387 0 6.5C0 4.70644 0.668847 3.08254 1.75772 1.90341C2.84224 0.729322 4.34155 0 5.99782 0ZM9.0569 6.14525C9.23683 6.14525 9.37984 6.30516 9.37984 6.5C9.37984 6.69484 9.23683 6.85475 9.0569 6.85475H6.00712H5.99782C5.87777 6.85475 5.77167 6.77983 5.71644 6.67501L5.71179 6.66998L5.70714 6.6599V6.65487L5.70249 6.64479L5.69784 6.63472V6.62969L5.69319 6.61961L5.68854 6.61458V6.6045L5.68389 6.59443V6.5894L5.67924 6.57932V6.56925V6.56421V6.55918L5.67459 6.55414V6.54407V6.534V6.52518V6.52015V6.51007V6.5V2.26823C5.67459 2.07339 5.8176 1.91852 5.99753 1.91852C6.17746 1.91852 6.32512 2.07339 6.32512 2.26823V6.14525H9.0569ZM9.78098 2.40327C8.81215 1.35414 7.47417 0.709492 5.99782 0.709492C4.52147 0.709492 3.18349 1.35383 2.21466 2.40327C1.25049 3.4524 0.650534 4.90128 0.650534 6.5C0.650534 8.09872 1.2502 9.5476 2.21466 10.597C3.18349 11.6462 4.52147 12.2908 5.99782 12.2908C7.47417 12.2908 8.81215 11.6462 9.78098 10.597C10.7498 9.54792 11.3498 8.09903 11.3498 6.5C11.3498 4.90128 10.7501 3.4524 9.78098 2.40327Z" fill="#16C5F4"/>
</svg>
