<svg width="10" height="15" viewBox="0 0 10 15" fill="none" xmlns="http://www.w3.org/2000/svg">
<path d="M5 0C2.243 0 0 2.36566 0 5.27344C0 6.25588 0.258028 7.21465 0.746361 8.04645L4.71539 14.7923C4.79142 14.9215 4.92536 15 5.06942 15C5.07053 15 5.07161 15 5.07272 15C5.21803 14.9988 5.35225 14.9179 5.42689 14.7864L9.29475 7.9752C9.75614 7.16098 10 6.22673 10 5.27344C10 2.36566 7.757 0 5 0ZM8.57961 7.52396L5.06311 13.7164L1.45464 7.58338C1.04817 6.89104 0.827778 6.09229 0.827778 5.27344C0.827778 2.85029 2.7025 0.873047 5 0.873047C7.2975 0.873047 9.16945 2.85029 9.16945 5.27344C9.16945 6.068 8.96358 6.84633 8.57961 7.52396Z" fill="#16C5F4"/>
</svg>
