<svg width="10" height="15" viewBox="0 0 10 15" fill="none" xmlns="http://www.w3.org/2000/svg">
<path d="M5 0C2.243 0 0 2.36566 0 5.27344C0 6.25588 0.258028 7.21465 0.746361 8.04645L4.71539 14.7923C4.79142 14.9215 4.92536 15 5.06942 15C5.07053 15 5.07161 15 5.07272 15C5.21803 14.9988 5.35225 14.9179 5.42689 14.7864L9.29475 7.9752C9.75614 7.16098 10 6.22673 10 5.27344C10 2.36566 7.757 0 5 0ZM8.57961 7.52396L5.06311 13.7164L1.45464 7.58338C1.04817 6.89104 0.827778 6.09229 0.827778 5.27344C0.827778 2.85029 2.7025 0.873047 5 0.873047C7.2975 0.873047 9.16944 2.85029 9.16944 5.27344C9.16944 6.068 8.96358 6.84633 8.57961 7.52396Z" fill="#16C5F4"/>
<path d="M5 2.63672C3.6215 2.63672 2.5 3.81955 2.5 5.27344C2.5 6.71804 3.60325 7.91016 5 7.91016C6.41397 7.91016 7.5 6.70216 7.5 5.27344C7.5 3.81955 6.3785 2.63672 5 2.63672ZM5 7.03711C4.07619 7.03711 3.32778 6.24513 3.32778 5.27344C3.32778 4.30418 4.081 3.50977 5 3.50977C5.919 3.50977 6.66944 4.30418 6.66944 5.27344C6.66944 6.23095 5.93844 7.03711 5 7.03711Z" fill="#16C5F4"/>
</svg> 